<?xml version="1.0" standalone="no"?>
<!DOCTYPE svg PUBLIC "-//W3C//DTD SVG 20010904//EN"
 "http://www.w3.org/TR/2001/REC-SVG-20010904/DTD/svg10.dtd">
<svg version="1.0" xmlns="http://www.w3.org/2000/svg"
 width="225.000000pt" height="225.000000pt" viewBox="0 0 225.000000 225.000000"
 preserveAspectRatio="xMidYMid meet">
<metadata>
Created by potrace 1.11, written by Peter Selinger 2001-2013
</metadata>
<g transform="translate(0.000000,225.000000) scale(0.100000,-0.100000)"
fill="#000000" stroke="none">
<path d="M902 1704 c-183 -37 -335 -196 -365 -379 l-12 -76 -50 -14 c-139 -41
-261 -160 -295 -286 -49 -181 40 -373 212 -460 l60 -30 680 -5 679 -4 71 37
c82 43 159 116 196 187 25 47 27 61 27 171 0 111 -2 124 -26 170 -41 76 -118
149 -202 189 -39 19 -80 37 -90 40 -9 3 -20 14 -23 23 -29 92 -81 161 -147
195 -32 16 -55 19 -124 17 l-85 -3 -32 39 c-123 157 -295 225 -474 189z"/>
</g>
</svg>
